<svg width="73" height="85" viewBox="0 0 73 85" fill="none" xmlns="http://www.w3.org/2000/svg">
<path d="M32.9893 0C29.2927 2.57811 26.2066 4.77464 24.6829 6.58804C23.818 7.61703 23.4386 8.46728 23.3891 9.24423C23.3396 10.0206 23.582 10.8965 24.4801 12.109L24.6869 12.388C28.0709 11.7228 31.9769 11.4038 36.2085 11.5091C41.9001 11.6507 47.2906 12.5354 51.8214 13.9544C51.5469 13.4141 51.2744 12.9099 50.9772 12.4724C49.9016 10.889 48.7805 9.89086 45.3849 10.0926L45.2907 10.0983L45.1972 10.0912C39.2862 9.64974 36.3381 7.67176 34.8994 5.15546C33.8366 3.29574 33.5013 1.47449 32.9895 0.000382526L32.9893 0ZM35.5619 14.5643C29.465 14.5386 24.1618 15.4627 20.5255 16.9487C18.5862 17.7414 17.1296 18.6997 16.2751 19.6654C15.421 20.6312 15.1872 21.5083 15.343 22.3292C15.4738 23.0181 15.9023 23.7616 16.7619 24.5835C21.3708 22.8235 26.9491 21.4795 33.1279 20.7523C42.0719 19.6992 50.5842 20.1358 57.2679 21.7547C58.6754 22.0954 60.0018 22.4884 61.2384 22.9362C60.9678 22.2634 60.4096 21.5383 59.442 20.738C58.2113 19.7205 56.3749 18.6804 54.1147 17.7833C49.5948 15.9896 43.4035 14.7463 36.7915 14.5821C36.3782 14.5717 35.9682 14.5656 35.5621 14.5641L35.5619 14.5643ZM43.4622 23.1638C40.4257 23.1542 37.2443 23.3289 34.0042 23.7103C25.3652 24.7271 17.9536 27.0214 13.0607 29.8159C10.6142 31.2129 8.80608 32.74 7.77612 34.2032C6.91523 35.4261 6.60552 36.5352 6.73131 37.5587C7.46218 37.2831 8.19934 37.0261 8.94214 36.7879C16.1051 34.4876 25.7976 33.1098 36.5 33.1098C47.2024 33.1098 56.8949 34.4876 64.0579 36.7879C64.2889 36.8621 64.5172 36.9375 64.7431 37.0137C65.5444 36.3253 66.1935 35.6314 66.6725 34.9513C67.7022 33.4879 67.9459 32.1864 67.5948 31.0015C67.2436 29.8165 66.2714 28.6585 64.473 27.5285C62.6746 26.3983 60.1141 25.3858 57.0324 24.6392C53.1803 23.7061 48.5225 23.1791 43.462 23.1638H43.4622ZM36.5 35.8477C26.1384 35.8477 16.7608 37.2115 10.1199 39.344C6.79916 40.4105 4.17081 41.6741 2.46075 42.9723C0.750878 44.2705 0 45.5163 0 46.7264C0 47.9364 0.750878 49.1822 2.46075 50.4804C2.47359 50.49 2.48716 50.4996 2.49981 50.5091L13.0336 45.0127L24.6259 51.1384L36.5128 45.0123L47.9474 51.1384L59.9789 45.019L70.5004 50.5093C70.5128 50.4998 70.5266 50.4902 70.5392 50.4806C72.2491 49.1822 73 47.9364 73 46.7264C73 45.5163 72.2491 44.2705 70.5392 42.9723C68.8292 41.6741 66.2008 40.4105 62.8801 39.344C56.239 37.2115 46.8614 35.8477 36.5 35.8477ZM59.9624 48.4339L49.6124 53.6979L46.757 77.5366L43.8461 77.1539L46.6342 53.8768L36.4872 48.4405L26.3412 53.6698L29.154 77.1539L26.2431 77.5366L23.4157 53.931L13.0251 48.4401L3.1194 53.6093L14.0571 85H58.9429L69.8806 53.6093L59.9624 48.4338V48.4339Z" fill="#F8F8F8"/>
</svg>
