<svg width="51" height="47" viewBox="0 0 51 47" fill="none" xmlns="http://www.w3.org/2000/svg">
<path d="M18.7303 34.5189C23.4477 34.5189 27.7476 32.8916 31.0469 30.2312L34.6243 37.135C34.6243 37.135 35.3602 37.6873 36.3716 38.6045C37.4071 39.4995 38.7691 40.7102 40.0749 41.975L43.7085 45.4072L45.3247 47L51 41.7704L49.2715 40.2811L45.5468 36.9328C44.2936 35.8266 43.0739 34.6887 41.889 33.5204C40.8937 32.5883 40.2943 31.9103 40.2943 31.9103L32.8022 28.6137C35.8028 25.4775 37.4591 21.4405 37.4607 17.2595C37.4607 7.74457 29.0561 0 18.7303 0C8.40456 0 0 7.74457 0 17.2595C0 26.7744 8.40456 34.5189 18.7303 34.5189Z" fill="black"/>
</svg>
